<?xml version="1.0" standalone="no"?>
<!DOCTYPE svg PUBLIC "-//W3C//DTD SVG 20010904//EN"
 "http://www.w3.org/TR/2001/REC-SVG-20010904/DTD/svg10.dtd">
<svg version="1.0" xmlns="http://www.w3.org/2000/svg"
 width="200.000000pt" height="200.000000pt" viewBox="0 0 200.000000 200.000000"
 preserveAspectRatio="xMidYMid meet">

<g transform="translate(0.000000,200.000000) scale(0.100000,-0.100000)"
fill="#000000" stroke="none">
<path d="M77 1978 c-23 -14 -45 -38 -57 -63 -20 -40 -20 -63 -20 -927 l0 -885
23 -34 c49 -73 -9 -69 971 -69 859 0 881 0 921 20 26 13 49 34 63 59 l22 39
-2 890 c-3 886 -3 891 -24 919 -11 15 -36 38 -54 51 l-33 22 -886 0 -886 0
-38 -22z m179 -1597 c38 -96 39 -101 20 -101 -7 0 -19 14 -26 30 -10 25 -18
30 -47 30 -29 0 -36 -5 -44 -30 -7 -18 -18 -30 -29 -30 -16 0 -14 10 18 95 47
123 60 124 108 6z m234 65 c0 -13 6 -27 13 -30 10 -5 10 -7 0 -12 -15 -7 -18
-104 -3 -104 6 0 10 -5 10 -11 0 -6 -10 -9 -22 -7 -20 3 -23 10 -26 58 -2 30
-9 58 -15 63 -9 7 -9 10 1 14 6 2 12 13 12 22 0 10 3 21 7 24 13 14 23 6 23
-17z m70 14 c0 -5 -9 -10 -20 -10 -11 0 -20 5 -20 10 0 6 9 10 20 10 11 0 20
-4 20 -10z m140 -30 l0 -40 45 0 45 0 0 40 c0 33 3 40 20 40 19 0 20 -7 20
-95 0 -88 -1 -95 -20 -95 -17 0 -20 7 -20 45 l0 45 -45 0 -45 0 0 -45 c0 -33
-4 -45 -15 -45 -12 0 -15 17 -15 95 0 78 3 95 15 95 11 0 15 -11 15 -40z m840
30 c0 -5 -7 -10 -15 -10 -8 0 -15 5 -15 10 0 6 7 10 15 10 8 0 15 -4 15 -10z
m-1132 -52 c7 -7 12 -38 12 -70 0 -45 -3 -58 -15 -58 -11 0 -15 13 -15 54 0
30 -5 58 -10 61 -22 13 -40 -17 -40 -66 0 -37 -4 -49 -15 -49 -12 0 -15 14
-15 70 l0 70 43 0 c24 0 48 -5 55 -12z m152 -58 c0 -63 -2 -70 -20 -70 -18 0
-20 7 -20 70 0 63 2 70 20 70 18 0 20 -7 20 -70z m330 16 c0 -57 7 -70 34 -60
12 5 16 20 16 60 0 41 4 54 15 54 12 0 15 -14 15 -69 l0 -69 -42 0 c-58 -1
-68 10 -68 79 0 46 3 59 15 59 11 0 15 -13 15 -54z m298 -18 c2 -56 0 -68 -13
-68 -12 0 -15 12 -15 54 0 31 -5 58 -12 62 -18 11 -38 -26 -38 -73 0 -32 -4
-43 -15 -43 -11 0 -15 13 -15 54 0 31 -5 58 -12 62 -18 11 -38 -26 -38 -73 0
-32 -4 -43 -15 -43 -12 0 -15 14 -15 69 l0 69 93 -2 92 -1 3 -67z m136 60 c3
-7 7 -38 9 -69 l5 -56 -55 1 c-41 1 -59 6 -67 19 -16 25 3 50 48 60 20 5 36
13 36 18 0 15 -30 23 -43 10 -6 -6 -20 -11 -31 -11 -18 0 -19 1 -1 20 21 23
93 28 99 8z m143 0 c19 -16 18 -128 -2 -128 -11 0 -15 12 -15 49 0 59 -23 88
-46 56 -8 -10 -14 -38 -14 -62 0 -32 -4 -43 -15 -43 -12 0 -15 14 -15 69 l0
68 47 1 c26 1 53 -4 60 -10z m73 -58 c0 -56 -3 -70 -15 -70 -12 0 -15 14 -15
70 0 56 3 70 15 70 12 0 15 -14 15 -70z m121 53 c13 -15 11 -16 -23 -9 -53 10
-59 -11 -9 -31 43 -17 54 -46 29 -71 -17 -17 -73 -15 -88 3 -18 22 -4 31 24
16 23 -13 46 -9 46 8 0 4 -18 15 -40 24 -41 16 -52 41 -28 65 18 18 73 15 89
-5z m217 -55 c2 -56 0 -68 -13 -68 -12 0 -15 12 -15 54 0 91 -39 87 -48 -3 -3
-34 -9 -51 -18 -51 -10 0 -14 15 -14 54 0 91 -39 87 -48 -3 -3 -34 -9 -51 -18
-51 -11 0 -14 17 -14 69 l0 69 93 -2 92 -1 3 -67z m-1228 2 c0 -5 -18 -10 -40
-10 -22 0 -40 5 -40 10 0 6 18 10 40 10 22 0 40 -4 40 -10z"/>
<path d="M192 401 c-14 -39 -12 -44 16 -39 17 3 18 6 7 38 l-12 34 -11 -33z"/>
<path d="M1244 329 c-3 -6 -1 -16 5 -22 13 -13 42 0 49 21 5 15 -44 16 -54 1z"/>
</g>
</svg>
