<?xml version="1.0" standalone="no"?>
<!DOCTYPE svg PUBLIC "-//W3C//DTD SVG 20010904//EN"
 "http://www.w3.org/TR/2001/REC-SVG-20010904/DTD/svg10.dtd">
<svg version="1.0" xmlns="http://www.w3.org/2000/svg"
 width="200.000000pt" height="200.000000pt" viewBox="0 0 200.000000 200.000000"
 preserveAspectRatio="xMidYMid meet">

<g transform="translate(0.000000,200.000000) scale(0.100000,-0.100000)"
fill="#000000" stroke="none">
<path d="M77 1978 c-23 -14 -45 -38 -57 -63 -20 -40 -20 -63 -20 -927 l0 -885
23 -34 c49 -73 -9 -69 971 -69 859 0 881 0 921 20 26 13 49 34 63 59 l22 39
-2 890 c-3 886 -3 891 -24 919 -11 15 -36 38 -54 51 l-33 22 -886 0 -886 0
-38 -22z m1843 -768 l0 -710 -920 0 -920 0 0 710 0 710 920 0 920 0 0 -710z
m-1490 -780 l0 -40 45 0 45 0 0 40 c0 29 4 40 15 40 12 0 15 -17 15 -95 0 -78
-3 -95 -15 -95 -11 0 -15 12 -15 45 l0 45 -45 0 -45 0 0 -45 c0 -33 -4 -45
-15 -45 -12 0 -15 17 -15 95 0 78 3 95 15 95 11 0 15 -11 15 -40z m830 30 c0
-5 -7 -10 -15 -10 -8 0 -15 5 -15 10 0 6 7 10 15 10 8 0 15 -4 15 -10z m-650
-89 c0 -59 23 -88 46 -56 8 10 14 38 14 62 0 32 4 43 15 43 12 0 15 -14 15
-69 l0 -68 -50 -2 c-59 -1 -70 13 -70 88 0 39 4 51 15 51 11 0 15 -12 15 -49z
m298 37 c19 -16 16 -128 -3 -128 -11 0 -15 12 -15 48 0 55 -10 75 -33 66 -13
-5 -17 -19 -17 -60 0 -41 -4 -54 -15 -54 -11 0 -15 12 -15 48 0 55 -10 75 -33
66 -13 -5 -17 -19 -17 -60 0 -41 -4 -54 -15 -54 -12 0 -15 14 -15 69 l0 68 83
1 c45 0 88 -5 95 -10z m140 0 c5 -7 12 -39 14 -70 l3 -57 -60 2 c-54 2 -60 4
-63 25 -5 31 12 49 53 56 19 4 35 11 35 17 0 17 -31 22 -56 9 -30 -17 -46 -3
-20 16 24 17 80 18 94 2z m140 0 c7 -7 12 -38 12 -70 0 -45 -3 -58 -15 -58
-11 0 -15 13 -15 54 0 30 -5 58 -10 61 -22 13 -40 -17 -40 -66 0 -37 -4 -49
-15 -49 -12 0 -15 14 -15 70 l0 70 43 0 c24 0 48 -5 55 -12z m72 -58 c0 -56
-3 -70 -15 -70 -12 0 -15 14 -15 70 0 56 3 70 15 70 12 0 15 -14 15 -70z m114
64 c31 -12 17 -26 -19 -20 -27 5 -35 4 -35 -7 0 -8 12 -18 27 -22 34 -8 53
-23 53 -41 0 -43 -90 -62 -111 -23 -10 20 -9 21 12 15 39 -12 62 -12 66 2 3 7
-7 15 -26 18 -16 4 -37 14 -46 24 -35 39 21 76 79 54z m224 -7 c19 -15 16
-127 -3 -127 -11 0 -15 13 -15 54 0 30 -5 58 -10 61 -22 13 -40 -17 -40 -66 0
-37 -4 -49 -15 -49 -11 0 -15 13 -15 54 0 30 -5 58 -10 61 -22 13 -40 -17 -40
-66 0 -37 -4 -49 -15 -49 -12 0 -15 14 -15 69 l0 69 83 -1 c45 0 88 -4 95 -10z"/>
<path d="M872 1210 c-1 -327 2 -588 7 -580 4 8 21 74 36 147 28 128 70 239 90
237 6 -1 18 -18 28 -39 17 -36 26 -67 76 -280 l19 -80 0 510 c0 464 -2 501
-13 414 -37 -270 -100 -358 -164 -227 -23 49 -56 234 -69 388 -7 75 -9 -67
-10 -490z"/>
<path d="M960 1478 c-39 -42 -38 -91 3 -128 72 -67 162 56 92 125 -30 31 -68
32 -95 3z"/>
<path d="M974 329 c-3 -6 -2 -15 4 -21 11 -11 52 6 52 22 0 14 -47 13 -56 -1z"/>
</g>
</svg>
